<?xml version="1.0" standalone="no"?>
<!DOCTYPE svg PUBLIC "-//W3C//DTD SVG 20010904//EN"
 "http://www.w3.org/TR/2001/REC-SVG-20010904/DTD/svg10.dtd">
<svg version="1.0" xmlns="http://www.w3.org/2000/svg"
 width="736.000000pt" height="1030.000000pt" viewBox="0 0 736.000000 1030.000000"
 preserveAspectRatio="xMidYMid meet">

<g transform="translate(0.000000,1030.000000) scale(0.100000,-0.100000)"
fill="#000000" stroke="none">
<path d="M0 5150 l0 -5150 3680 0 3680 0 0 5150 0 5150 -3680 0 -3680 0 0
-5150z m4737 4423 l772 -6 31 -116 c18 -64 56 -204 86 -311 281 -1015 260
-928 299 -1225 19 -149 35 -276 35 -283 0 -8 -18 -12 -54 -12 -64 0 -54 -32
-91 285 -29 238 -31 247 -250 1050 -52 193 -105 389 -117 438 l-22 87 -996 -6
-995 -7 -859 -66 -859 -66 -38 -165 c-21 -91 -56 -246 -79 -345 -22 -99 -81
-360 -130 -580 l-88 -400 -7 -210 c-4 -115 -9 -213 -11 -217 -3 -5 -22 -8 -43
-8 l-38 0 -6 98 c-4 53 -7 152 -7 220 0 121 2 133 106 585 58 254 129 570 159
702 30 132 63 281 75 332 l22 92 41 6 c53 6 707 58 1092 85 160 12 355 27 435
34 173 16 507 18 1537 9z m1273 -2232 l0 -189 -46 -4 c-25 -2 -47 -1 -50 1 -2
2 -4 64 -4 138 l0 133 -31 0 c-17 0 -90 -9 -162 -20 -257 -38 -614 -79 -732
-85 -66 -3 -626 -10 -1245 -16 -1127 -10 -1441 -20 -2180 -69 -80 -5 -157 -10
-172 -10 l-28 0 0 -140 0 -140 -49 0 -48 0 -7 61 c-3 34 -6 120 -6 190 l0 129
33 0 c17 0 243 13 502 30 259 16 553 35 655 40 102 6 743 18 1425 26 719 8
1272 19 1315 25 137 19 744 87 788 88 l42 1 0 -189z m1113 -203 c-78 -102
-534 -666 -544 -674 -8 -7 -108 -19 -234 -28 -500 -37 -474 -34 -1199 -152
l-279 -45 -511 -14 c-1562 -43 -1444 -43 -2546 5 -118 5 -341 15 -495 21
l-280 12 -279 122 -279 122 -118 229 c-65 126 -117 230 -115 231 3 3 518 -61
656 -82 123 -19 350 -30 875 -45 209 -6 472 -15 585 -20 113 -5 351 -13 530
-16 341 -7 396 -5 910 41 151 14 491 43 755 65 409 34 870 84 1100 120 155 24
589 70 760 80 105 7 278 18 385 25 274 17 335 18 323 3z m-1103 -983 c0 -100
-4 -165 -10 -165 -5 0 -16 14 -25 30 -9 17 -18 30 -21 30 -3 0 -3 -28 1 -62
l6 -63 -206 -117 c-159 -91 -210 -115 -223 -108 -66 37 -299 140 -318 140 -12
0 -100 -27 -195 -60 -155 -54 -185 -68 -298 -143 -69 -46 -157 -96 -196 -110
-54 -20 -355 -110 -547 -163 -14 -4 -13 2 8 40 14 25 31 78 37 118 l12 72 86
73 86 73 219 64 c201 60 221 68 246 98 14 18 55 69 90 113 l63 79 130 32 c194
47 195 47 195 34 0 -7 -32 -51 -71 -97 -39 -46 -69 -86 -67 -89 9 -8 302 17
314 27 7 6 27 33 44 60 18 27 35 49 39 49 4 0 20 -13 36 -30 28 -29 45 -38 45
-22 0 4 -22 30 -48 58 l-47 51 -84 6 c-76 6 -114 18 -100 31 4 4 415 76 432
76 3 0 30 -32 62 -71 31 -39 59 -68 62 -65 3 3 -16 35 -41 71 -26 36 -46 65
-44 66 60 12 237 37 276 38 l52 1 0 -165z m-4372 -10 c9 -3 -1 -32 -33 -95
-25 -49 -45 -96 -45 -105 0 -35 19 -9 62 88 l46 102 167 -2 c91 0 168 -3 170
-5 2 -2 7 -30 10 -63 l7 -60 -84 -38 c-105 -47 -171 -97 -385 -291 -94 -86
-174 -156 -177 -156 -3 0 -19 44 -36 99 -29 95 -30 105 -30 288 0 105 3 204 6
220 l6 29 151 -4 c84 -2 158 -5 165 -7z m3197 -4 c-6 -6 -123 -33 -262 -61
-139 -27 -259 -53 -267 -56 -19 -7 -24 3 -27 61 l-3 50 129 5 c238 10 439 10
430 1z m529 -12 c3 -3 -10 -28 -29 -56 l-34 -51 -106 -7 c-59 -4 -108 -5 -110
-3 -2 2 34 33 80 69 l84 65 55 -6 c30 -3 58 -8 60 -11z m-2963 -15 l106 -6 31
-97 c31 -95 39 -141 25 -141 -5 0 -120 42 -257 93 -257 96 -279 109 -262 153
7 18 5 18 357 -2z m1834 -19 c0 -28 -4 -31 -110 -70 -327 -122 -425 -157 -434
-154 -14 6 13 76 41 106 12 14 43 36 68 49 25 12 40 23 35 24 -6 0 -86 -20
-177 -45 -92 -25 -175 -45 -185 -45 -21 0 -334 118 -348 131 -5 5 26 9 80 10
50 1 259 7 465 14 206 7 418 12 470 11 l95 -1 0 -30z m-1509 -15 c55 -20 66
-20 160 -9 l101 12 189 -67 c104 -37 195 -69 202 -71 15 -5 -96 -163 -116
-164 -8 -1 -81 26 -163 60 -82 33 -154 59 -161 56 -15 -5 7 -16 182 -90 l125
-53 3 -110 3 -110 -75 -72 -74 -72 -231 112 c-127 61 -231 117 -231 125 0 14
46 46 128 87 28 14 52 30 52 34 0 4 -45 27 -100 51 -55 23 -104 50 -109 59 -5
10 -23 66 -41 126 -25 88 -29 111 -18 118 19 13 104 2 174 -22z m3534 0 c36
-11 70 -23 77 -28 7 -4 26 -88 43 -187 17 -99 40 -226 51 -281 l20 -102 -101
-293 c-56 -162 -106 -298 -111 -303 -5 -5 -12 -7 -15 -3 -4 3 -22 68 -40 144
-27 108 -34 158 -34 235 0 81 -3 101 -17 113 -10 7 -28 22 -40 32 l-23 18 11
245 c8 194 15 260 31 315 28 96 45 127 66 121 9 -3 46 -15 82 -26z m-1584 -97
l-36 -57 -206 -73 c-114 -40 -213 -73 -220 -73 -18 0 -18 0 10 95 l23 79 229
51 c126 28 230 47 232 43 2 -4 -12 -34 -32 -65z m-453 5 c-3 -13 -25 -75 -49
-138 -40 -102 -53 -124 -114 -193 -64 -71 -70 -82 -70 -121 0 -36 -7 -53 -40
-95 -23 -29 -45 -49 -50 -46 -4 3 -11 27 -15 53 -9 70 -21 82 -27 27 -6 -46
-13 -63 -24 -53 -3 4 -39 95 -80 204 -56 150 -71 199 -62 205 7 5 60 24 118
44 58 19 168 57 245 84 163 58 175 60 168 29z m-1780 -133 c165 -58 302 -107
305 -109 2 -3 -15 -14 -37 -26 l-42 -21 -337 96 c-365 103 -386 110 -377 125
9 15 95 39 143 39 31 1 132 -30 345 -104z m1227 70 c0 -9 -6 -31 -14 -50 -14
-32 -12 -43 50 -242 35 -114 64 -213 64 -220 0 -6 23 -31 50 -56 28 -25 50
-50 50 -56 0 -16 -72 -13 -97 4 -12 8 -36 39 -53 67 -19 32 -29 43 -26 28 3
-14 9 -41 12 -61 l6 -36 -126 -6 c-79 -4 -136 -3 -153 4 -32 12 -93 56 -93 67
0 4 15 16 34 26 19 10 36 26 39 36 3 10 -20 82 -49 160 -30 79 -54 150 -54
160 0 18 91 153 112 166 7 4 55 11 108 14 52 4 105 8 118 8 14 1 22 -4 22 -13z
m2306 -129 l-31 -115 -64 -50 c-35 -28 -65 -51 -67 -51 -2 0 -4 53 -4 118 l0
119 93 50 c50 28 95 49 98 47 3 -2 -8 -55 -25 -118z m-4765 -36 c-2 -74 -4
-136 -6 -138 -1 -1 -14 7 -28 18 l-26 21 -42 -56 -42 -56 7 -272 c3 -149 9
-332 12 -404 7 -144 -2 -170 -30 -85 -46 142 -158 636 -168 743 l-11 115 42
77 c31 56 58 89 104 126 62 50 62 51 127 48 l65 -2 -4 -135z m741 108 c33 -15
35 -40 11 -85 -21 -35 -130 -133 -149 -133 -15 0 -90 107 -82 115 24 25 175
124 183 121 6 -3 22 -10 37 -18z m4108 -55 c0 -27 -11 -113 -25 -192 -21 -125
-28 -148 -52 -173 -14 -15 -30 -28 -34 -28 -4 0 1 33 11 73 10 39 33 138 50
220 18 81 37 147 41 147 5 0 9 -21 9 -47z m-3896 -13 c61 -12 121 -25 134 -30
21 -9 44 -48 36 -61 -2 -4 -54 4 -116 18 -62 13 -129 27 -148 31 -28 6 -36 13
-38 35 -4 33 -8 32 132 7z m3606 -139 l0 -120 -61 -47 c-33 -25 -64 -42 -68
-38 -19 23 -95 208 -86 211 6 2 53 28 105 58 52 30 98 55 103 55 4 0 7 -54 7
-119z m-464 74 c198 -54 189 -50 223 -110 17 -30 31 -59 31 -65 0 -26 -34 -19
-100 21 l-71 42 -72 -13 c-64 -11 -81 -10 -134 5 -55 16 -63 16 -91 1 -38 -20
-58 -20 -109 -2 -36 13 -45 12 -94 -6 -71 -25 -141 -38 -157 -29 -16 9 381
189 419 190 15 1 85 -15 155 -34z m-3584 -22 c45 -47 53 -73 50 -155 l-4 -77
-86 -3 -86 -3 -9 -40 c-6 -22 -11 -42 -13 -43 -6 -8 -165 101 -161 112 4 12
266 236 277 236 3 0 18 -12 32 -27z m775 -8 c107 -39 135 -57 116 -76 -9 -9
-40 -2 -125 28 -92 33 -114 44 -116 62 -5 29 10 27 125 -14z m-171 -66 l322
-91 11 -67 c7 -36 14 -78 17 -93 4 -20 2 -28 -8 -28 -8 0 -70 23 -138 50 -82
33 -138 50 -167 50 -36 0 -55 9 -114 51 -39 28 -77 53 -85 56 -7 3 -36 -9 -64
-26 -54 -33 -104 -39 -239 -25 l-61 7 0 36 c1 33 8 42 81 104 45 37 91 67 102
67 12 0 166 -41 343 -91z m-980 -195 c-6 -29 -31 -62 -40 -53 -7 7 -26 197
-25 256 l0 58 35 -114 c25 -79 34 -125 30 -147z m1988 141 c22 -77 25 -70 -86
-189 -66 -71 -76 -79 -101 -72 -15 3 -27 12 -27 19 0 6 36 51 79 98 62 67 81
94 86 125 17 106 23 108 49 19z m1810 -1 c10 -27 -12 -56 -42 -52 -36 4 -39
29 -5 50 35 22 39 22 47 2z m266 -19 l34 -35 -36 0 c-19 0 -50 -3 -67 -6 -19
-4 -31 -2 -31 4 0 12 49 72 59 72 4 0 22 -16 41 -35z m500 28 c0 -5 -16 -56
-36 -115 l-36 -108 -71 -1 c-40 -1 -88 -2 -107 -3 -19 -1 -36 4 -37 9 -2 10
264 223 280 224 4 1 7 -2 7 -6z m-684 -34 c40 -24 41 -28 13 -63 -20 -26 -22
-26 -40 -10 -18 16 -28 94 -13 94 4 0 22 -9 40 -21z m-406 -35 c0 -28 -7 -30
-32 -7 -23 20 -23 30 0 36 25 5 32 -1 32 -29z m142 19 c10 -9 18 -25 18 -35 0
-17 -5 -18 -52 -12 -66 8 -77 17 -53 44 22 24 62 26 87 3z m-2783 -22 c11 -7
7 -17 -19 -50 -34 -42 -48 -43 -70 -1 -21 39 46 78 89 51z m633 -39 c187 -86
262 -135 241 -156 -12 -11 -128 -5 -232 12 -103 17 -105 18 -112 47 -12 53
-18 145 -9 145 5 0 56 -21 112 -48z m2789 1 c16 -37 18 -53 10 -70 -14 -31
-22 -29 -48 12 -21 32 -22 36 -8 69 9 20 18 36 20 36 3 0 15 -21 26 -47z m336
25 c-2 -12 -10 -24 -17 -26 -9 -3 -11 1 -7 12 4 10 7 22 7 27 0 5 4 9 10 9 5
0 8 -10 7 -22z m-1207 3 c0 -12 -53 -53 -98 -75 -24 -12 -53 -16 -105 -14
l-72 3 94 48 c69 34 106 47 138 47 24 0 43 -4 43 -9z m404 -25 l31 -12 -49
-17 c-49 -17 -106 -23 -106 -11 0 3 10 19 21 36 23 32 35 32 103 4z m295 -12
c-11 -10 -24 -11 -59 -3 -77 16 -78 23 -5 29 71 5 88 -1 64 -26z m-4235 -29
c50 -72 55 -114 23 -207 -31 -91 -40 -156 -32 -218 5 -38 16 -59 56 -103 l49
-55 -17 -46 -18 -45 -45 34 c-38 28 -46 41 -52 77 -12 78 -22 618 -11 618 5 0
27 -25 47 -55z m1072 18 c38 -32 44 -43 44 -75 0 -41 -10 -46 -48 -24 -45 24
-79 105 -55 129 10 10 11 10 59 -30z m2662 6 c32 -12 20 -26 -29 -34 -47 -8
-61 1 -53 33 7 23 22 23 82 1z m580 -7 c2 -14 -2 -22 -11 -22 -19 0 -40 26
-32 40 11 18 40 6 43 -18z m-3533 8 c10 -16 -12 -46 -50 -69 -20 -11 -39 -21
-43 -21 -4 0 -22 13 -40 30 -28 25 -31 33 -22 50 9 17 21 20 80 20 38 0 72 -4
75 -10z m1395 -14 c0 -17 -14 -36 -44 -60 -47 -39 -56 -43 -56 -23 0 15 78
107 91 107 5 0 9 -11 9 -24z m1418 -28 c-7 -4 -33 -8 -58 -8 l-45 1 35 29 35
29 23 -22 c17 -15 19 -23 10 -29z m-3255 -42 c99 -58 118 -77 138 -134 10 -29
8 -35 -33 -87 -23 -30 -46 -55 -51 -55 -4 0 -23 10 -43 23 -27 17 -45 43 -80
117 -73 154 -87 189 -80 206 5 14 9 15 29 2 12 -8 66 -41 120 -72z m528 64
l24 -20 -24 -20 c-31 -26 -39 -25 -51 6 -7 19 -7 31 1 40 15 19 22 18 50 -6z
m-292 -22 c32 -11 20 -23 -51 -47 -63 -22 -68 -18 -68 40 0 28 0 29 48 22 26
-3 58 -10 71 -15z m3574 4 c15 -6 16 -10 4 -26 -11 -15 -21 -17 -70 -11 -47 6
-57 11 -57 26 0 16 7 19 53 18 28 0 60 -4 70 -7z m542 -168 c-15 -63 -35 -124
-45 -136 l-19 -23 -1 40 c0 43 56 252 74 274 22 28 18 -38 -9 -155z m-3676
127 c12 -16 21 -31 21 -34 0 -8 -90 -20 -97 -13 -7 6 38 76 49 76 4 0 16 -13
27 -29z m287 5 c94 -35 101 -46 27 -46 -33 0 -88 3 -122 6 -55 6 -61 9 -61 30
0 41 59 45 156 10z m1884 15 c0 -13 -61 -35 -221 -81 -161 -45 -160 -45 -153
-26 10 27 136 73 299 109 36 8 75 7 75 -2z m1171 -12 c33 -23 42 -79 13 -79
-36 0 -54 20 -54 60 0 22 3 40 6 40 3 0 19 -9 35 -21z m-76 1 c6 -9 -20 -80
-29 -80 -19 0 -76 45 -74 59 4 22 91 41 103 21z m-3380 -40 c0 -23 -5 -26 -65
-36 -105 -19 -140 -17 -140 5 0 16 10 20 58 26 31 4 71 13 87 20 42 19 60 14
60 -15z m-765 -95 c12 -36 20 -68 19 -69 -18 -16 -129 -64 -129 -56 0 6 12 38
26 71 21 51 24 71 19 118 l-6 56 24 -27 c14 -15 35 -57 47 -93z m506 83 c15
-30 15 -32 -2 -46 -25 -18 -115 -64 -119 -60 -1 2 -9 24 -18 50 l-15 46 51 20
c73 28 84 27 103 -10z m-422 -76 c25 -43 46 -86 46 -96 0 -22 -28 -76 -39 -76
-13 0 -71 166 -71 204 0 28 6 46 16 46 1 0 23 -35 48 -78z m3837 52 c33 -15
59 -29 59 -32 0 -6 -17 -19 -87 -68 l-51 -36 -99 56 c-55 31 -110 56 -124 56
-13 0 -36 8 -49 18 l-25 17 50 6 c28 3 99 7 159 7 98 2 114 -1 167 -24z
m-1875 -28 c41 -19 74 -39 74 -44 0 -5 -33 -12 -72 -15 -40 -3 -81 -8 -90 -12
-12 -5 -20 -1 -24 10 -8 21 13 95 27 95 6 0 44 -15 85 -34z m2304 5 c21 -14
78 -110 79 -133 1 -5 -28 -8 -64 -8 l-64 0 -11 38 c-6 20 -13 59 -17 86 l-6
49 29 -7 c16 -4 40 -15 54 -25z m123 -33 c-8 -35 -16 -64 -18 -66 -3 -3 -55
105 -55 114 0 3 38 11 66 13 21 1 21 0 7 -61z m-960 20 c50 -19 28 -28 -75
-28 -57 0 -113 -3 -125 -6 -16 -4 -25 -1 -29 10 -9 24 0 30 59 37 60 8 130 3
170 -13z m727 -9 c0 -4 3 -14 6 -23 3 -9 2 -16 -3 -16 -15 0 -64 51 -58 60 6
10 55 -8 55 -21z m419 -209 c1 -246 -8 -390 -24 -390 -10 0 -45 144 -72 301
-4 24 60 299 75 324 14 22 20 -50 21 -235z m-1419 211 c0 -21 -32 -29 -137
-36 -109 -6 -113 -6 -113 13 0 11 6 23 13 25 22 9 237 7 237 -2z m1499 -28 c5
-21 15 -67 22 -103 8 -46 21 -78 45 -109 46 -61 44 -71 -14 -71 -44 0 -48 2
-50 25 -1 14 -9 81 -17 148 -18 143 -18 147 -5 147 5 0 14 -17 19 -37z m-3245
11 c32 -6 45 -21 31 -36 -10 -10 -105 15 -105 27 0 17 12 26 26 21 7 -3 29 -8
48 -12z m-112 -19 c6 -14 9 -27 7 -29 -3 -3 -96 -2 -207 1 -112 3 -199 10
-195 14 10 10 208 32 341 37 36 2 44 -2 54 -23z m1093 12 c28 -7 49 -18 48
-23 -2 -5 -80 -10 -178 -12 -168 -2 -175 -2 -175 17 0 24 19 28 155 29 55 1
123 -4 150 -11z m1642 -9 c19 -21 28 -45 47 -131 7 -28 6 -28 -22 -13 -58 30
-99 31 -142 2 -22 -14 -50 -26 -62 -26 -23 0 -68 36 -68 54 0 14 189 135 211
136 8 0 25 -10 36 -22z m-1225 -8 c-49 -30 -150 -80 -162 -80 -5 0 -10 13 -10
29 0 28 2 30 78 46 42 9 82 18 87 20 31 11 35 2 7 -15z m-2032 -6 c0 -3 -11
-20 -26 -39 l-25 -33 -77 31 c-66 27 -73 32 -52 38 31 9 180 11 180 3z m-231
-55 c114 -61 118 -64 101 -84 -10 -12 -36 -15 -124 -15 l-111 0 -77 -44 c-43
-25 -80 -41 -83 -36 -5 9 10 98 18 107 10 9 172 122 176 123 2 0 47 -23 100
-51z m1126 19 c36 -18 65 -35 65 -38 0 -4 -11 -13 -25 -20 -22 -12 -30 -9 -95
34 -38 26 -70 49 -70 52 0 15 70 -1 125 -28z m2010 -9 c30 -37 28 -53 -7 -57
-27 -3 -38 16 -38 66 0 30 13 28 45 -9z m-588 -30 c46 -50 87 -69 150 -69 42
0 56 6 106 46 60 46 105 62 151 50 28 -7 35 -36 14 -53 -7 -6 -73 -34 -147
-62 l-133 -52 -187 62 c-180 60 -210 74 -192 92 8 8 101 21 178 26 14 1 36
-14 60 -40z m506 27 c3 -12 -30 -32 -39 -24 -11 12 5 40 21 36 9 -2 17 -7 18
-12z m566 -101 c6 -24 11 -63 11 -87 l-1 -43 -19 35 c-24 43 -60 155 -60 184
1 19 4 18 29 -13 16 -18 34 -53 40 -76z m-4193 -65 c14 -78 24 -151 22 -161
-3 -15 -18 -8 -95 44 l-92 62 -1 71 0 71 67 31 c37 17 68 30 70 28 2 -1 15
-67 29 -146z m1009 101 c30 -52 31 -53 142 -67 73 -9 98 0 158 56 50 49 53 50
86 39 19 -7 38 -15 42 -19 5 -4 -33 -34 -84 -65 l-93 -58 -126 7 c-122 7 -127
8 -200 48 -166 90 -169 104 -25 107 l71 1 29 -49z m1619 8 c11 -59 8 -92 -10
-85 -9 3 -18 6 -20 6 -7 0 -4 96 3 103 13 14 21 6 27 -24z m-1877 -1 c22 -20
31 -48 16 -48 -12 0 -53 43 -53 57 0 19 10 16 37 -9z m2053 13 c0 -5 -4 -21
-10 -35 -7 -20 -17 -26 -39 -26 -26 0 -60 24 -49 35 7 8 73 34 86 35 6 0 12
-4 12 -9z m-690 -6 c0 -3 -13 -31 -29 -63 l-29 -57 -72 -18 c-39 -11 -74 -16
-77 -13 -17 17 -1 57 43 103 48 50 51 52 107 52 31 1 57 -1 57 -4z m198 -2
c77 -6 82 -7 82 -29 0 -13 -13 -38 -29 -56 l-29 -32 -103 15 c-114 16 -115 17
-90 82 12 30 23 32 169 20z m-505 -35 c5 -34 -18 -108 -34 -108 -5 0 -9 32 -9
70 0 62 2 70 19 70 13 0 20 -9 24 -32z m137 18 c0 -8 -12 -24 -27 -36 l-28
-21 -17 21 c-30 37 -23 50 27 50 32 0 45 -4 45 -14z m1782 -46 c-4 -44 -27
-63 -67 -55 -45 8 -47 18 -14 58 24 29 37 37 58 35 23 -3 26 -7 23 -38z m68
25 c6 -8 9 -19 5 -25 -10 -17 -32 -11 -38 9 -8 32 12 42 33 16z m-1285 -17 c6
-6 -4 -8 -29 -6 -22 2 -41 9 -44 17 -3 10 3 12 29 6 19 -4 39 -11 44 -17z
m405 7 c7 -8 10 -22 6 -30 -5 -13 -10 -13 -40 2 -28 13 -33 19 -25 30 15 17
44 17 59 -2z m-2073 -31 c3 -8 3 -18 -1 -21 -8 -9 -57 38 -50 48 7 12 44 -8
51 -27z m2145 -17 c-23 -23 -42 -15 -42 17 0 33 9 37 37 19 24 -16 24 -16 5
-36z m1048 14 c0 -24 -5 -29 -31 -35 -61 -12 -229 -19 -229 -10 0 17 58 44 97
45 21 0 54 7 73 14 19 7 47 14 63 14 23 1 27 -3 27 -28z m74 8 c36 -28 33 -41
-11 -37 -33 3 -38 7 -41 31 -4 33 14 36 52 6z m-2499 1 c39 -15 24 -25 -56
-39 -67 -12 -74 -16 -123 -68 l-52 -55 -52 7 c-29 4 -52 10 -52 13 0 7 222
136 250 145 25 9 57 8 85 -3z m905 -19 c0 -5 -8 -19 -18 -30 -15 -20 -22 -21
-60 -12 -55 12 -62 19 -38 37 22 15 116 20 116 5z m233 -8 c4 -2 7 -14 7 -26
0 -14 20 -42 50 -72 44 -44 50 -54 48 -85 -2 -27 -8 -36 -24 -38 -16 -2 -37
19 -92 94 -43 57 -72 106 -72 120 0 23 3 24 38 18 20 -4 40 -9 45 -11z m802 9
c-56 -50 -134 -60 -91 -13 13 15 31 21 60 21 22 0 36 -4 31 -8z m-3026 -38
c44 -30 51 -38 40 -49 -39 -35 -271 -215 -279 -215 -22 0 -37 122 -22 178 7
23 161 121 192 122 8 0 39 -16 69 -36z m156 14 c20 -30 6 -34 -50 -12 -55 21
-58 34 -6 34 30 0 44 -6 56 -22z m2378 15 c8 -7 -21 -43 -35 -43 -10 0 -11 34
-1 43 8 9 28 9 36 0z m-2103 -33 c43 -22 60 -36 60 -50 0 -26 -12 -25 -68 7
-46 26 -72 49 -72 65 0 14 19 9 80 -22z m884 -116 c-19 -53 -39 -104 -44 -115
-11 -20 -48 -44 -56 -36 -4 4 60 227 82 287 4 12 11 9 29 -13 l24 -27 -35 -96z
m-471 121 c1 -5 -11 -12 -27 -13 -27 -3 -28 -2 -16 13 14 17 40 17 43 0z
m1681 -88 c188 -96 200 -104 214 -140 8 -21 13 -40 10 -42 -2 -2 -39 5 -81 17
-71 20 -77 23 -77 47 0 24 -14 34 -132 95 -142 73 -168 91 -168 113 0 25 36
11 234 -90z m1406 48 c7 -25 10 -48 6 -52 -7 -8 -207 -36 -213 -30 -2 3 4 32
13 65 l17 61 76 3 c42 2 79 2 82 1 3 -1 12 -23 19 -48z m-3605 -9 c90 -42 115
-49 245 -68 173 -24 180 -25 160 -38 -8 -6 -40 -19 -70 -31 l-54 -20 -126 21
c-69 12 -132 27 -140 34 -22 16 -130 142 -130 150 0 4 3 5 8 3 4 -3 52 -26
107 -51z m823 42 c9 -9 5 -19 -19 -44 l-31 -32 -51 17 c-28 10 -52 22 -54 28
-2 6 22 17 54 26 74 19 86 20 101 5z m877 -19 c13 -24 15 -46 9 -102 -11 -116
-19 -122 -39 -35 -16 66 -16 82 -5 122 7 25 14 46 16 46 2 0 11 -14 19 -31z
m118 -25 c26 -28 47 -54 47 -58 0 -3 -13 -6 -29 -6 -23 0 -34 9 -59 47 -17 25
-28 52 -25 60 7 19 11 16 66 -43z m767 28 c0 -4 -17 -16 -39 -28 -31 -17 -41
-18 -55 -9 -23 17 -21 22 22 44 26 13 42 16 55 10 9 -5 17 -13 17 -17z m-1066
-1 l90 -6 23 -95 c21 -81 24 -119 24 -265 -1 -257 -11 -405 -27 -405 -8 0 -14
-3 -14 -6 0 -3 24 -47 54 -97 29 -51 72 -126 95 -167 l42 -75 -6 81 c-6 80 -6
81 27 125 26 34 42 45 66 47 37 4 90 -25 122 -65 24 -30 27 -113 8 -224 -13
-83 16 -59 -304 -247 l-241 -142 -134 15 -134 16 -235 151 c-129 83 -236 152
-238 153 -1 1 -9 51 -16 110 -11 79 -12 114 -4 129 18 34 80 116 86 116 24 -2
117 -41 133 -56 20 -21 45 -180 34 -215 -4 -10 -2 -19 4 -19 12 0 20 25 71
225 23 88 48 181 56 206 14 45 14 51 -41 267 -30 121 -55 230 -55 242 0 28 30
132 41 144 4 5 46 24 91 43 91 36 74 36 382 14z m764 13 c26 -7 28 -21 6 -45
-16 -17 -18 -17 -55 2 -45 23 -47 26 -16 39 27 11 36 11 65 4z m-2923 -41 c-3
-21 -11 -59 -17 -85 l-10 -48 -57 0 -58 0 -7 66 c-4 37 -4 69 -1 73 8 7 101
28 134 30 22 1 23 -2 16 -36z m3422 22 c-2 -5 -54 -36 -117 -68 -110 -55 -118
-57 -182 -54 -37 1 -70 6 -75 10 -12 12 18 27 56 27 28 0 132 43 166 70 33 25
159 38 152 15z m532 -11 c11 -14 23 -42 27 -61 6 -34 -9 -107 -24 -117 -4 -2
-57 6 -117 20 -61 13 -135 24 -165 24 -30 0 -72 3 -93 6 l-37 7 6 51 c4 28 10
55 14 59 4 5 72 14 151 22 215 19 214 19 238 -11z m-429 -1 c-1 -79 -59 -177
-143 -241 l-56 -44 -100 23 c-55 12 -104 25 -110 29 -6 3 -13 20 -17 37 -5 28
-3 31 26 37 18 3 50 6 70 6 31 0 62 16 167 85 129 86 163 100 163 68z m-2582
-20 c3 -21 -1 -23 -41 -23 -54 0 -77 8 -77 25 0 18 16 22 70 21 39 -1 45 -4
48 -23z m92 17 c11 -7 9 -11 -13 -19 -16 -6 -35 -11 -43 -11 -14 0 -19 21 -7
33 9 10 46 8 63 -3z m-545 -21 c32 -12 62 -31 72 -45 8 -14 14 -26 12 -27 -2
-2 -62 0 -133 3 l-130 5 48 43 c27 23 55 42 62 42 7 0 38 -9 69 -21z m2603 -1
c3 -16 -5 -18 -66 -18 -74 0 -88 5 -70 27 8 10 29 13 72 11 49 -2 61 -7 64
-20z m-1716 -21 l32 -13 -100 -73 c-54 -41 -114 -80 -133 -88 -51 -22 -112
-10 -139 27 -12 16 -22 31 -22 33 0 10 102 47 130 47 23 0 43 11 78 45 43 42
50 45 85 40 21 -3 52 -11 69 -18z m3206 -22 c4 -47 -5 -114 -18 -135 -8 -12
-15 -9 -45 20 -33 32 -35 38 -35 98 l0 63 48 -3 47 -3 3 -40z m-3118 -18 c0
-38 -120 -317 -136 -317 -3 0 -19 11 -36 25 -16 14 -35 25 -41 25 -51 2 -279
29 -285 34 -3 4 0 11 7 15 17 11 204 51 237 51 15 0 41 15 67 39 85 78 162
140 175 141 6 0 12 -6 12 -13z m1307 -46 c23 -11 44 -25 48 -31 8 -12 5 -12
-31 0 -16 5 -48 14 -71 20 -32 8 -43 16 -43 30 0 16 4 17 28 11 15 -5 46 -18
69 -30z m1503 27 c0 -7 7 -58 15 -113 18 -122 18 -193 2 -222 -20 -36 -328
-303 -350 -303 -7 0 -40 48 -75 106 l-63 105 89 95 89 96 32 106 c17 58 36
111 41 116 11 11 88 22 173 25 32 1 47 -3 47 -11z m-1768 -6 c16 -6 148 -207
148 -224 0 -13 -16 -9 -60 16 -37 21 -48 36 -81 111 -49 109 -49 114 -7 97z
m-2756 -53 c6 -13 19 -131 28 -261 l17 -237 -31 -61 -31 -61 -29 18 c-73 43
-79 53 -124 198 -68 219 -69 214 28 111 121 -129 121 -129 112 125 -5 162 -4
200 6 197 7 -3 18 -15 24 -29z m923 -42 l54 -62 -94 -6 c-136 -8 -244 -50
-319 -124 l-55 -54 -47 29 c-43 27 -118 119 -118 145 0 5 35 32 77 59 l77 48
156 13 c85 7 169 13 185 14 25 1 39 -9 84 -62z m136 38 c33 -8 85 -15 115 -15
42 -1 62 -6 83 -24 33 -26 29 -31 -50 -64 -30 -13 -73 -22 -102 -22 -55 0 -65
7 -127 93 l-34 47 28 0 c15 0 54 -7 87 -15z m2911 -66 c94 -86 118 -103 144
-96 11 3 22 1 26 -4 6 -10 -93 -119 -109 -119 -6 0 -47 27 -92 60 -100 72
-110 77 -208 89 -43 5 -81 12 -84 14 -7 8 17 39 60 77 28 24 53 36 86 41 97
13 96 14 177 -62z m-4096 5 c49 -47 60 -63 66 -100 7 -49 -3 -134 -16 -134 -4
0 -18 21 -30 48 -12 26 -38 64 -56 85 -31 33 -34 43 -34 97 0 33 3 60 6 60 3
0 32 -25 64 -56z m350 35 c16 -7 201 -565 200 -601 0 -13 -25 -25 -95 -48 -52
-16 -101 -30 -108 -30 -14 0 -80 273 -97 395 -14 110 -23 282 -15 294 7 13 86
6 115 -10z m2796 -4 c57 -17 110 -50 131 -81 14 -21 12 -22 -54 -34 -37 -6
-85 -21 -105 -32 -21 -12 -39 -20 -40 -17 -2 2 -22 42 -45 89 -31 62 -39 87
-30 93 15 10 76 3 143 -18z m1068 9 c126 -22 118 -17 100 -61 -9 -21 -20 -42
-25 -47 -9 -10 -179 98 -179 114 0 13 -4 13 104 -6z m-1395 -26 c6 -18 29 -56
50 -85 l39 -51 -15 -52 c-8 -29 -20 -49 -26 -47 -33 10 -77 157 -77 253 0 26
18 14 29 -18z m2080 6 c28 -36 27 -45 -14 -84 l-35 -34 0 65 c0 87 12 100 49
53z m-2119 -116 c19 -91 29 -114 57 -148 31 -36 34 -43 25 -72 -6 -18 -13 -75
-17 -127 -5 -67 -14 -110 -32 -152 -14 -33 -28 -59 -32 -59 -13 1 -82 72 -90
93 -5 16 38 557 48 597 4 15 21 -38 41 -132z m-741 -77 c41 -133 51 -218 26
-215 -5 1 -56 70 -112 153 -114 168 -115 175 -43 205 56 23 64 25 76 10 6 -8
30 -76 53 -153z m1524 113 c90 -22 106 -28 96 -40 -19 -23 -100 -17 -186 15
-125 46 -155 60 -149 70 6 9 23 6 239 -45z m-2410 -41 c86 -10 157 -21 157
-24 0 -4 -41 -31 -90 -59 -90 -52 -120 -84 -120 -130 0 -20 -4 -21 -112 -18
l-113 3 -42 80 c-23 44 -42 85 -43 92 0 15 26 29 95 54 63 23 76 23 268 2z
m2754 -12 c30 -9 185 -123 191 -141 10 -27 -250 -50 -564 -50 l-281 0 -77 66
c-42 36 -74 69 -71 75 17 27 70 39 197 45 129 7 139 6 211 -19 l76 -27 63 29
c52 25 77 30 143 30 44 1 94 -3 112 -8z m-2364 -37 c64 -5 94 -12 112 -26 14
-11 23 -24 19 -29 -25 -41 -386 -133 -494 -127 -52 3 -55 4 -52 28 6 39 19 49
147 112 91 45 127 58 150 54 17 -3 69 -8 118 -12z m337 -36 c30 -53 30 -53 30
-217 l0 -164 -37 6 c-20 4 -42 12 -49 19 -8 8 -15 62 -20 151 -4 76 -11 140
-15 143 -17 10 -9 36 22 75 17 21 32 39 35 39 2 0 17 -24 34 -52z m1110 -19
c0 -16 -7 -62 -16 -100 -18 -80 -16 -108 17 -196 13 -34 20 -65 17 -69 -4 -4
-33 4 -65 18 -65 28 -78 52 -68 129 5 42 60 242 72 262 11 18 43 -15 43 -44z
m-2196 -33 c20 -35 36 -67 36 -71 0 -12 -71 5 -112 26 -21 11 -38 27 -38 36 0
20 59 85 71 78 4 -3 23 -34 43 -69z m2322 -51 c53 -46 85 -66 112 -70 20 -3
52 -9 71 -13 l34 -7 -41 -28 c-23 -15 -46 -27 -52 -27 -9 0 -209 96 -219 106
-6 5 -3 83 4 94 10 16 13 14 91 -55z m-1338 -57 c2 -70 0 -88 -11 -88 -25 0
-149 102 -138 113 24 24 108 67 126 65 18 -3 20 -12 23 -90z m-1149 13 l126
-69 195 -12 c107 -7 198 -15 203 -19 4 -4 -10 -41 -30 -82 l-38 -74 -160 -106
-159 -107 -77 71 c-43 39 -84 87 -93 106 -8 20 -34 101 -56 181 -55 189 -52
180 -45 180 4 0 64 -31 134 -69z m3579 -108 l73 -120 -21 -123 -21 -123 -104
-162 -105 -161 0 -197 c0 -108 -3 -197 -6 -197 -4 0 -102 70 -219 155 l-212
154 -64 146 -64 146 -80 48 c-44 26 -116 69 -160 94 -44 26 -86 51 -93 55 -7
5 -33 67 -58 138 -82 230 -84 223 60 164 l105 -43 71 43 c85 52 119 59 275 60
216 1 459 18 496 33 19 9 39 14 44 13 6 -1 43 -57 83 -123z m457 105 c-6 -27
-173 -900 -215 -1129 -47 -252 -47 -249 -112 -350 -33 -52 -112 -177 -176
-279 -63 -102 -116 -187 -118 -189 -7 -8 -134 84 -134 97 0 8 27 62 59 120
l60 107 21 182 c11 101 25 194 30 207 5 13 36 61 69 107 l61 83 0 75 c0 42 3
147 7 233 5 127 9 161 23 176 35 37 49 70 65 152 40 208 31 186 93 233 31 23
101 77 156 120 54 42 102 77 107 77 5 0 7 -10 4 -22z m-2980 -85 c65 -55 71
-62 79 -111 8 -46 6 -57 -11 -80 -11 -15 -104 -148 -208 -295 -148 -212 -195
-272 -224 -286 -55 -28 -401 -145 -408 -138 -9 10 -124 510 -120 522 3 6 86
61 185 123 l181 113 37 91 c21 49 42 92 48 94 31 10 343 39 356 33 8 -4 47
-34 85 -66z m347 20 c37 -36 48 -54 48 -78 0 -34 -60 -187 -75 -192 -5 -2 -23
17 -38 41 l-28 44 11 109 c5 59 10 111 10 116 0 19 28 3 72 -40z m-1397 -368
l132 -125 12 -72 c7 -40 61 -370 121 -732 61 -363 110 -670 110 -682 0 -13 -4
-25 -9 -28 -4 -3 -72 81 -150 186 -124 168 -140 193 -127 207 12 14 4 43 -60
221 -148 410 -134 357 -117 439 8 40 13 74 11 75 -1 2 -37 26 -78 53 -42 28
-80 57 -86 64 -11 14 -74 381 -74 431 0 24 8 29 78 57 42 16 83 30 91 30 7 1
73 -55 146 -124z m2844 -270 c61 -124 71 -186 37 -224 -11 -12 -22 -21 -27
-21 -4 0 -22 24 -40 53 -18 28 -75 118 -126 198 -51 80 -96 160 -99 178 l-7
33 104 -53 104 -54 54 -110z m-1793 160 c7 -19 14 -44 14 -55 0 -40 -114 -332
-136 -346 -24 -17 -106 -29 -129 -20 -15 5 -12 15 20 74 21 37 76 138 122 225
47 86 87 157 89 157 3 0 12 -16 20 -35z m1545 -104 c149 -185 150 -191 53
-191 -64 0 -66 -1 -77 -30 -6 -16 -14 -30 -17 -30 -4 0 -28 15 -54 34 l-47 33
-107 -28 c-142 -38 -154 -38 -150 3 3 29 13 38 122 103 87 51 122 77 127 95 4
14 15 52 24 84 14 49 19 57 29 45 7 -8 51 -61 97 -118z m-1259 -198 c274 -181
261 -175 434 -188 l89 -7 140 96 c123 85 141 94 154 81 18 -17 18 -79 1 -100
-7 -8 -23 -15 -35 -15 -14 0 -35 -14 -53 -34 -36 -41 -62 -56 -97 -56 -27 0
-65 -32 -96 -80 l-16 -25 -26 31 c-23 27 -43 36 -134 58 -84 21 -117 35 -149
62 -34 27 -48 33 -72 28 -16 -3 -32 -1 -36 4 -3 6 -14 8 -24 5 -10 -2 -37 10
-61 27 l-43 32 -92 -42 -92 -41 -72 33 c-42 19 -72 39 -72 48 0 23 83 250 92
250 4 0 121 -75 260 -167z m2204 126 c-3 -17 -6 -83 -6 -145 l0 -114 -32 13
c-37 15 -45 37 -47 128 -1 45 4 63 29 102 35 56 66 64 56 16z m-2761 -142 c-3
-7 -18 -68 -34 -137 -75 -319 -263 -1107 -267 -1122 -8 -28 -21 -21 -42 25
-13 28 -30 112 -48 250 -28 207 -28 208 -15 428 l12 221 -45 74 -45 73 25 20
c14 11 49 27 77 37 74 24 231 87 306 123 63 30 84 32 76 8z m1960 -34 c25 -58
18 -62 -67 -35 -61 18 -78 27 -78 42 0 19 19 25 97 28 29 2 35 -2 48 -35z
m-2907 -13 c64 -41 70 -53 56 -107 -9 -34 -35 -28 -88 18 -42 37 -46 45 -46
85 0 24 4 44 8 44 5 0 37 -18 70 -40z m2643 18 c30 -17 36 -24 28 -35 -16 -18
-43 -16 -90 8 -33 17 -38 23 -29 35 17 20 46 18 91 -8z m-44 -74 c18 -14 33
-28 33 -32 0 -4 -14 -25 -31 -45 l-32 -38 -38 37 c-29 28 -39 46 -39 69 0 18
3 35 7 39 13 13 65 -3 100 -30z m119 -31 c-3 -26 -13 -57 -21 -70 -16 -25 -55
-39 -81 -29 -12 5 -6 19 33 76 58 84 79 91 69 23z m276 -17 c14 -25 -1 -37
-57 -43 -41 -5 -50 -2 -76 23 -41 39 -55 64 -39 74 18 11 161 -34 172 -54z
m311 -69 c89 -73 175 -142 190 -152 l28 -20 -6 -160 c-4 -88 -12 -176 -19
-195 -18 -51 -96 -181 -105 -175 -5 2 -27 35 -49 72 -40 68 -40 69 -57 243 -9
96 -19 179 -23 185 -3 5 -45 67 -94 137 -48 69 -88 132 -88 139 0 15 39 59 52
59 5 0 82 -60 171 -133z m-850 108 c-1 -5 -14 -47 -29 -92 -24 -72 -31 -83
-51 -83 -13 0 -23 1 -23 3 0 3 37 140 46 168 5 17 60 21 57 4z m-1283 -25 c0
-6 -13 -10 -30 -10 -30 0 -43 24 -17 33 15 5 47 -10 47 -23z m1677 -68 c13
-18 13 -27 3 -52 -7 -17 -15 -30 -19 -30 -4 0 -21 28 -39 63 -64 124 -25 138
55 19z m-1783 69 c15 -23 -33 -63 -98 -82 -39 -11 -47 -4 -35 31 9 23 21 32
57 44 58 17 69 18 76 7z m2629 -28 c9 -9 17 -19 17 -22 0 -3 -25 -37 -56 -76
l-56 -70 4 85 c2 47 8 92 12 99 10 15 53 7 79 -16z m-1347 0 c-3 -10 -8 -35
-12 -55 -3 -21 -9 -38 -13 -38 -4 0 -13 17 -20 38 -8 20 -16 42 -18 49 -4 11
15 20 50 22 13 1 17 -4 13 -16z m-2313 -72 c14 -35 61 -223 72 -288 3 -19 1
-33 -4 -33 -23 0 -101 136 -120 208 -14 51 -30 174 -24 184 8 15 62 -36 76
-71z m1217 -12 l0 -69 -42 0 c-69 0 -76 10 -43 67 61 106 85 106 85 2z m294 9
c-8 -35 -14 -80 -14 -100 0 -20 -4 -40 -10 -43 -15 -9 -102 137 -89 149 5 5
112 54 120 55 3 1 0 -27 -7 -61z m978 35 c34 -33 35 -39 3 -86 -28 -40 -57
-48 -89 -24 -18 13 -17 17 15 75 19 34 36 62 38 62 3 0 18 -12 33 -27z m253
-33 c24 -51 27 -63 17 -85 -17 -36 -27 -31 -49 23 -19 44 -21 122 -4 122 4 0
20 -27 36 -60z m-1652 -25 c-21 -41 -40 -75 -43 -75 -3 0 -15 19 -28 43 l-23
42 28 23 c32 27 60 40 85 41 15 1 12 -11 -19 -74z m197 35 c-11 -40 -19 -50
-36 -50 -21 0 -17 37 6 60 29 29 40 25 30 -10z m415 -7 c14 -21 25 -42 25 -46
0 -17 -43 -68 -50 -60 -12 13 -22 143 -11 143 6 0 22 -17 36 -37z m-319 -48
l21 -75 -27 0 c-48 0 -90 12 -90 25 0 15 62 124 70 125 3 0 15 -34 26 -75z
m244 44 c0 -16 5 -50 11 -75 10 -39 9 -47 -6 -64 -25 -28 -31 -26 -60 23 -35
60 -34 111 3 130 42 23 52 20 52 -14z m580 -25 l0 -56 -52 7 c-62 8 -71 14
-66 46 2 17 15 28 48 41 68 26 70 25 70 -38z m808 31 c23 -50 13 -62 -63 -81
-23 -6 -25 -3 -25 25 0 33 37 81 63 81 8 0 19 -11 25 -25z m-2548 -66 c16 -31
18 -51 13 -175 l-6 -139 -17 38 c-11 24 -20 80 -24 145 -4 59 -9 130 -12 157
-5 48 -4 49 11 30 9 -11 25 -36 35 -56z m2440 36 c0 -32 -2 -35 -30 -35 -21 0
-30 5 -30 16 0 27 20 54 40 54 16 0 20 -7 20 -35z m-2004 -155 c-14 -73 -28
-135 -31 -138 -3 -3 -14 3 -26 14 -19 17 -20 26 -14 82 4 35 10 76 15 92 11
39 74 117 78 97 2 -8 -8 -75 -22 -147z m923 111 c22 -46 23 -49 6 -75 -10 -14
-20 -26 -24 -26 -6 0 -51 126 -51 143 0 4 10 7 23 7 18 0 29 -11 46 -49z m431
12 c0 -7 -4 -13 -9 -13 -10 0 -21 36 -13 45 7 7 22 -15 22 -32z m389 28 c11
-7 10 -14 -7 -38 -36 -51 -47 -56 -81 -39 -41 22 -44 30 -20 60 15 20 29 26
57 26 20 0 43 -4 51 -9z m476 -70 c32 -67 29 -83 -8 -54 -40 29 -71 106 -50
126 11 11 28 -10 58 -72z m-2126 8 c30 -73 28 -79 -16 -72 -21 3 -40 7 -41 9
-6 5 21 114 28 114 4 0 17 -23 29 -51z m915 32 c8 -13 -21 -34 -39 -27 -25 9
-18 36 9 36 14 0 27 -4 30 -9z m146 -28 c0 -16 3 -45 6 -65 7 -43 -2 -48 -37
-20 l-22 19 19 46 c22 53 34 60 34 20z m-88 -5 c13 -22 14 -118 0 -118 -9 0
-92 50 -92 56 0 9 63 84 71 84 3 0 13 -10 21 -22z m711 10 c3 -7 12 -30 21
-50 16 -38 16 -38 -8 -38 -30 0 -60 54 -45 82 11 21 25 23 32 6z m-922 -60 c4
-24 8 -53 9 -65 l0 -23 -55 27 c-30 15 -54 30 -53 34 10 23 75 86 82 79 4 -5
12 -28 17 -52z m1109 5 c6 -32 14 -66 16 -76 4 -13 -4 -21 -30 -32 -19 -8 -40
-15 -46 -15 -16 0 -12 108 6 146 24 50 41 43 54 -23z m166 -39 c-8 -90 -13
-114 -26 -114 -10 0 -65 85 -85 133 -17 42 -18 40 50 56 72 16 68 20 61 -75z
m-863 65 c33 -9 38 -14 33 -32 -3 -12 -6 -30 -6 -40 0 -15 -7 -18 -36 -15 -33
3 -38 7 -54 51 l-18 47 21 0 c12 0 39 -5 60 -11z m180 -70 c43 -44 76 -83 74
-85 -2 -3 -38 1 -78 7 -41 7 -80 12 -86 12 -14 0 -19 128 -6 140 12 12 18 8
96 -74z m106 57 c19 -23 29 -71 19 -90 -9 -15 -16 -11 -64 36 -51 50 -53 53
-32 60 39 11 65 9 77 -6z m-1274 -7 c8 -12 -40 -94 -55 -94 -8 0 -23 17 -33
38 -23 50 -10 69 45 65 22 -1 41 -5 43 -9z m1360 -11 c26 -12 29 -26 19 -90
-6 -32 -11 -38 -30 -38 -23 0 -24 3 -24 70 0 39 2 70 5 70 2 0 16 -5 30 -12z
m-1261 -45 c7 -52 3 -59 -36 -68 -25 -6 -28 -5 -28 19 0 38 26 96 43 96 9 0
16 -16 21 -47z m1394 -53 c28 -49 52 -94 52 -99 0 -7 -51 -31 -66 -31 -1 0
-13 15 -26 32 -16 23 -25 53 -29 103 -11 114 -1 114 69 -5z m-1252 67 c5 -5
-97 -57 -112 -57 -2 0 -4 15 -4 33 l0 32 55 -1 c30 0 58 -3 61 -7z m1344 -72
c0 -92 -15 -98 -52 -21 -28 56 -27 66 4 66 10 0 21 7 24 15 14 35 24 10 24
-60z m-1202 38 c25 -37 33 -61 23 -68 -12 -7 -224 16 -234 25 -7 6 147 63 185
69 4 1 15 -11 26 -26z m1636 -66 c20 -86 20 -87 0 -102 -10 -8 -21 -15 -25
-15 -7 0 -79 177 -79 196 0 12 10 14 43 12 l42 -3 19 -88z m-1497 50 l62 -32
-33 -40 -34 -40 -39 22 c-35 20 -38 25 -41 72 -4 61 0 62 85 18z m216 6 c43
-22 32 -33 -33 -33 -62 0 -69 5 -49 41 11 21 28 20 82 -8z m165 1 c17 -7 32
-16 32 -20 0 -18 -24 -84 -31 -84 -8 0 -79 112 -79 124 0 8 27 1 78 -20z
m-1090 -19 c-40 -37 -64 -46 -54 -19 3 9 6 24 6 35 0 16 7 19 43 19 l42 -1
-37 -34z m1200 -86 c-9 -26 -55 -69 -73 -69 -8 0 3 123 12 147 4 11 14 6 38
-17 30 -29 32 -35 23 -61z m-1112 45 l15 -37 -42 -43 c-23 -24 -46 -41 -51
-38 -4 3 -8 29 -8 57 0 47 3 54 33 74 17 12 33 22 35 22 2 1 10 -15 18 -35z
m953 -46 l32 -56 -46 -32 -45 -31 -10 27 c-10 25 -2 101 16 153 6 19 15 9 53
-61z m1076 -4 c20 -42 35 -78 32 -80 -2 -3 -20 -7 -38 -10 -30 -5 -36 -2 -52
25 -16 28 -17 38 -7 86 6 30 15 55 20 55 5 0 25 -34 45 -76z m-177 50 c12 -4
22 -10 22 -15 0 -8 -151 -89 -165 -89 -3 0 -5 7 -5 15 0 14 96 93 115 94 6 1
20 -2 33 -5z m-1688 -84 l0 -80 -33 0 c-47 0 -57 15 -57 86 l0 63 43 4 c23 2
43 4 45 5 1 1 2 -34 2 -78z m580 35 l31 -45 -61 0 c-39 0 -60 4 -60 12 0 11
47 78 55 78 2 0 18 -20 35 -45z m100 38 c0 -14 -24 -73 -30 -73 -8 0 -40 55
-40 69 0 6 16 11 35 11 19 0 35 -3 35 -7z m360 -3 c0 -6 -12 -22 -26 -35 -42
-39 -55 -31 -32 20 11 25 58 37 58 15z m90 -10 c17 -9 80 -91 80 -103 0 -5
-91 -29 -95 -25 -11 13 -44 121 -40 129 8 12 32 12 55 -1z m-940 -17 c4 -4 4
-35 1 -68 -5 -51 -9 -60 -27 -63 -17 -2 -30 11 -63 68 -22 40 -41 74 -41 77 0
9 121 -4 130 -14z m133 5 c15 -12 14 -17 -19 -58 -19 -25 -39 -46 -44 -48 -10
-4 -30 61 -30 96 0 19 5 22 38 22 21 0 46 -6 55 -12z m985 -8 c32 -20 42 -47
20 -54 -7 -3 -32 -7 -55 -10 -41 -6 -44 -5 -68 34 -14 22 -25 42 -25 45 0 14
98 3 128 -15z m-1591 -94 c-4 -11 -19 -16 -47 -16 -38 0 -41 2 -35 23 4 12 21
37 39 55 l31 33 9 -40 c5 -22 6 -47 3 -55z m167 59 c8 -31 -17 -81 -44 -90
-49 -16 -54 34 -8 82 38 40 44 40 52 8z m514 8 c16 -27 -33 -93 -69 -93 -16 0
-29 2 -29 5 0 10 74 105 82 105 4 0 11 -8 16 -17z m-323 -36 c14 -24 25 -47
25 -50 0 -4 -13 -7 -30 -7 -29 0 -30 1 -30 50 0 28 2 50 5 50 2 0 16 -20 30
-43z m975 16 c0 -16 3 -38 6 -50 4 -16 1 -25 -11 -29 -18 -7 -95 15 -95 27 0
9 82 79 93 79 4 0 7 -12 7 -27z m-1456 1 c16 -42 -4 -84 -40 -84 -7 0 3 77 12
92 8 13 21 9 28 -8z m2174 -23 c16 -22 48 -71 71 -109 l42 -70 -17 -83 c-9
-46 -19 -87 -23 -92 -7 -7 -336 179 -373 211 -25 21 -23 27 20 46 20 9 80 43
132 76 52 33 101 59 107 60 7 0 26 -18 41 -39z m-1305 1 c10 -10 14 -27 11
-39 -5 -19 -11 -21 -38 -16 -41 8 -40 6 -21 42 18 36 26 38 48 13z m1040 -7
c8 -19 1 -23 -111 -56 -112 -34 -141 -37 -121 -13 16 19 58 42 124 65 61 22
101 24 108 4z m-889 -4 c18 -7 18 -8 -5 -24 -28 -20 -50 -22 -67 -5 -32 32 16
51 72 29z m1346 -27 c0 -18 -44 -124 -51 -124 -12 0 -62 90 -54 98 15 16 105
38 105 26z m-1011 -30 c62 -18 62 -34 0 -51 -53 -14 -189 -17 -189 -4 0 5 17
23 38 40 43 35 74 38 151 15z m281 -9 c0 -8 -8 -18 -17 -23 -25 -13 -183 -24
-183 -13 0 18 31 33 82 41 89 13 118 12 118 -5z m-1242 -10 c1 -1 -5 -12 -15
-24 -16 -19 -22 -20 -55 -11 -29 8 -35 14 -31 30 5 18 11 19 52 14 25 -3 47
-7 49 -9z m2002 -33 c0 -54 -21 -94 -40 -76 -9 9 -7 25 6 68 10 31 21 56 26
56 4 0 8 -22 8 -48z m-2250 29 c25 -5 43 -9 40 -10 -3 0 -36 -12 -74 -26 -37
-14 -72 -22 -77 -19 -5 3 -9 18 -9 35 0 27 2 29 38 28 20 0 57 -4 82 -8z m419
-7 c104 -24 91 -38 -30 -31 -55 3 -103 8 -106 11 -11 10 19 36 42 36 12 0 55
-7 94 -16z m565 0 c18 -7 18 -8 0 -21 -38 -27 -374 -12 -374 18 0 16 334 18
374 3z m-787 -74 c80 0 86 -5 138 -111 27 -54 47 -100 44 -102 -44 -34 -209
-153 -254 -184 -52 -36 -69 -42 -132 -47 -87 -7 -84 -21 -49 177 26 150 28
152 112 251 l56 67 27 -25 c17 -16 38 -26 58 -26z m1478 28 c2 -7 10 -103 18
-213 l15 -200 -31 -32 c-17 -18 -35 -33 -40 -33 -5 0 -70 52 -144 117 l-134
116 -28 -34 -29 -34 -48 45 c-144 131 -157 146 -145 168 6 12 19 26 29 31 10
5 116 23 237 40 121 16 231 32 245 34 46 8 51 7 55 -5z m-2763 -16 c9 -9 -23
-74 -39 -80 -12 -3 -73 72 -73 91 0 11 100 1 112 -11z m1111 -10 c-56 -84 -68
-102 -73 -102 -7 0 -50 68 -50 79 0 9 107 49 133 50 5 1 1 -11 -10 -27z m-159
-43 c20 -34 34 -64 31 -67 -3 -3 -31 -14 -62 -23 l-55 -18 6 52 c12 94 18 117
31 117 7 0 29 -28 49 -61z m736 26 c74 -3 165 -8 202 -11 73 -6 70 -2 83 -97
l7 -47 -63 -29 c-35 -15 -76 -31 -92 -35 -22 -5 -180 16 -300 40 -25 5 -35 19
-68 91 -21 47 -39 90 -39 95 0 6 25 8 68 4 37 -3 128 -8 202 -11z m449 -30
c18 -17 8 -42 -38 -95 l-39 -45 -35 75 c-20 41 -33 78 -31 81 7 12 128 -2 143
-16z m816 -67 c69 -46 127 -90 130 -98 3 -8 -1 -37 -8 -65 -11 -43 -16 -50
-43 -56 -47 -9 -52 -15 -64 -77 -23 -115 -29 -117 -92 -33 l-44 58 -13 159
c-7 87 -15 167 -17 177 -10 32 25 18 151 -65z m332 -7 c-3 -37 -12 -85 -21
-105 -17 -40 -46 -49 -46 -13 0 38 29 159 41 173 24 30 32 14 26 -55z m112 4
c19 -31 31 -58 28 -61 -3 -3 -29 -3 -56 1 l-51 7 0 54 c0 50 2 54 23 54 17 0
31 -14 56 -55z m-2395 -62 c-13 -53 -27 -58 -42 -14 -11 31 -5 39 31 40 14 1
16 -4 11 -26z m1165 -60 c1 -38 -3 -39 -54 -17 -41 17 -43 10 20 82 l20 24 6
-29 c4 -15 7 -43 8 -60z m-1230 21 c23 -61 26 -84 11 -84 -13 0 -72 118 -65
130 14 23 34 6 54 -46z m1319 -54 c3 -63 -7 -104 -22 -89 -7 7 -34 174 -29
182 3 5 15 2 26 -6 19 -12 22 -26 25 -87z m-312 23 c-8 -16 -22 -35 -31 -43
-13 -11 -18 -10 -30 6 -8 10 -15 22 -15 26 0 7 82 47 88 42 2 -1 -3 -15 -12
-31z m1218 10 c9 -46 10 -137 2 -155 -18 -40 -26 -13 -26 82 0 95 12 132 24
73z m186 2 c5 -13 17 -63 25 -111 16 -85 16 -87 -4 -107 -20 -20 -22 -20 -56
-4 -20 9 -38 23 -41 31 -5 13 17 144 32 199 8 25 33 21 44 -8z m-1335 -2 c-2
-10 -9 -62 -16 -116 -6 -53 -16 -100 -21 -103 -6 -4 -29 12 -51 34 l-41 41 44
63 c52 75 71 98 81 98 4 0 6 -8 4 -17z m-1122 -53 c20 -33 37 -64 37 -69 0 -8
-55 -21 -90 -21 -9 0 -24 13 -33 30 -18 29 -17 31 8 75 15 25 30 45 33 45 4 0
24 -27 45 -60z m772 39 c55 -6 104 -14 109 -19 5 -5 -10 -38 -35 -77 -24 -38
-78 -140 -119 -226 -41 -86 -79 -157 -85 -157 -5 1 -27 25 -48 55 -21 30 -44
55 -51 55 -8 0 -46 7 -85 16 l-71 16 -34 61 c-19 34 -33 65 -30 69 3 4 66 57
140 118 128 103 138 110 173 105 20 -3 81 -10 136 -16z m1799 -52 c15 -40 29
-90 33 -110 l6 -37 -40 0 -39 0 -20 105 c-12 58 -18 107 -16 110 3 3 15 5 27
5 19 0 27 -13 49 -73z m-1379 -22 c0 -43 -3 -50 -20 -50 -17 0 -20 8 -23 53
-3 51 -2 53 20 50 21 -3 23 -8 23 -53z m279 -28 c27 -32 47 -59 45 -61 -7 -6
-108 -34 -111 -31 -2 2 -2 40 0 85 2 45 7 78 11 74 4 -5 29 -35 55 -67z m146
34 l45 -39 -19 -34 c-11 -18 -27 -43 -37 -56 l-18 -23 -26 41 c-48 76 -50 85
-26 119 12 17 25 31 29 31 4 0 27 -18 52 -39z m1053 -20 c26 -27 47 -54 47
-60 0 -6 -12 -36 -26 -68 l-27 -58 -28 110 c-16 61 -29 113 -29 118 0 17 20 4
63 -42z m-1718 -28 c-12 -122 -17 -128 -75 -98 -47 24 -34 85 30 139 48 40 53
35 45 -41z m339 2 c-1 -33 -10 -78 -19 -100 -18 -39 -18 -39 -26 -15 -4 14 -7
60 -8 103 l-1 78 28 -3 c26 -3 27 -5 26 -63z m1072 18 c-7 -55 -11 -60 -31
-43 -20 16 -19 49 2 72 27 30 36 22 29 -29z m603 18 c12 -8 12 -16 1 -55 -7
-25 -14 -46 -16 -46 -6 0 -89 91 -92 101 -5 12 89 11 107 0z m-819 -56 c9 -11
10 -25 4 -48 -18 -62 -56 -25 -40 39 7 28 18 30 36 9z m-360 -107 c0 -4 -38
-8 -85 -8 -47 0 -85 4 -85 9 0 4 16 29 36 56 l36 47 49 -48 c27 -27 49 -52 49
-56z m453 -7 c9 -52 15 -97 12 -99 -2 -2 -24 12 -48 32 l-45 36 26 70 c15 38
29 66 33 62 3 -4 13 -49 22 -101z m-2294 44 c51 -61 51 -89 2 -93 -55 -5 -101
6 -101 26 0 22 43 122 52 119 3 -1 25 -24 47 -52z m1269 -7 c-3 -42 -4 -43
-45 -52 -42 -9 -73 2 -73 25 0 9 98 69 113 69 5 0 7 -19 5 -42z m151 20 c-44
-84 -83 -98 -52 -20 12 33 21 42 40 42 21 0 23 -2 12 -22z m-1296 -40 c2 -29
3 -55 1 -57 -5 -5 -111 91 -113 102 -1 4 23 7 53 7 l53 0 6 -52z m1486 -3 c12
-25 21 -47 21 -50 0 -3 -25 -5 -55 -5 -30 0 -55 2 -55 5 0 23 46 95 60 95 4 0
17 -20 29 -45z m813 28 c26 -23 22 -37 -14 -51 -36 -13 -44 -9 -53 30 -5 20
-3 27 12 31 31 8 36 7 55 -10z m-359 -93 c-4 -4 -39 -19 -77 -33 -101 -39
-108 -27 -45 73 l41 65 45 -49 c24 -27 40 -52 36 -56z m-605 17 c-24 -44 -61
-61 -71 -33 -7 16 71 88 86 79 4 -2 -3 -23 -15 -46z m-1165 23 c-36 -33 -106
-79 -114 -74 -5 3 -9 23 -9 44 l0 39 58 3 c61 3 79 0 65 -12z m607 -62 c0 -47
-9 -58 -51 -58 -33 0 -39 3 -39 20 0 24 25 76 49 103 15 18 16 18 28 -10 7
-15 12 -40 13 -55z m1651 60 l27 -9 -16 -60 c-9 -32 -19 -59 -23 -59 -11 0
-59 132 -53 142 3 5 13 6 23 3 9 -4 28 -11 42 -17z m-2921 -3 c10 -13 11 -24
1 -57 l-13 -41 -20 21 c-18 18 -19 24 -8 56 13 40 21 44 40 21z m746 -30 c7
-19 14 -38 14 -43 0 -8 -125 -62 -143 -62 -4 0 -7 13 -7 29 0 25 10 37 57 70
31 23 58 41 60 41 2 0 11 -16 19 -35z m752 9 c3 -18 -4 -22 -44 -28 -84 -11
-154 -8 -154 8 0 43 9 47 104 44 84 -3 91 -5 94 -24z m720 13 c6 -6 12 -39 13
-72 l3 -60 -53 -3 c-30 -2 -57 0 -62 5 -4 4 -1 36 8 70 15 62 19 66 69 72 6 0
16 -5 22 -12z m820 -82 c47 -95 49 -91 -43 -78 l-47 6 6 41 c9 54 28 116 35
116 4 0 26 -38 49 -85z m132 40 c0 -33 -4 -45 -15 -45 -18 0 -20 41 -5 71 16
29 20 23 20 -26z m-585 -10 c27 -24 47 -46 45 -48 -5 -5 -126 -37 -140 -37 -4
0 -10 14 -14 31 -4 24 0 38 20 65 15 19 29 34 33 34 3 0 28 -20 56 -45z m-477
20 c2 -2 -6 -35 -18 -74 -21 -68 -23 -71 -52 -71 l-30 0 7 58 c12 103 13 105
54 97 20 -4 37 -8 39 -10z m712 -5 c0 -20 -51 -124 -68 -136 -29 -23 -33 -16
-30 53 l3 67 40 12 c51 16 55 16 55 4z m-2347 -11 c32 -16 77 -61 77 -75 0
-21 -52 -55 -79 -52 -25 3 -26 6 -29 71 -2 37 0 67 3 67 4 0 16 -5 28 -11z
m1217 -16 c2 -2 0 -12 -6 -21 -10 -15 -99 -41 -108 -31 -2 2 -6 19 -10 37 l-6
34 63 -7 c34 -4 64 -9 67 -12z m298 -15 l-3 -32 -70 -3 c-90 -4 -109 6 -75 41
20 23 32 26 87 26 l64 0 -3 -32z m401 -70 c-41 -67 -47 -73 -74 -70 -33 3 -67
37 -63 61 4 21 160 103 172 91 6 -6 -8 -38 -35 -82z m-2139 55 c0 -53 -11 -58
-82 -42 -56 14 -63 18 -66 42 l-3 27 75 0 76 0 0 -27z m1084 9 c3 -5 8 -38 12
-74 l6 -65 -33 -7 c-18 -3 -36 -3 -40 1 -7 7 5 110 16 141 5 14 31 16 39 4z
m185 -26 l22 -23 -66 -42 c-36 -22 -70 -41 -74 -41 -6 0 -23 53 -34 107 -2 9
45 20 94 22 25 1 42 -6 58 -23z m-690 -13 c-47 -60 -84 -103 -89 -103 -3 0
-16 20 -28 45 l-21 44 42 11 c23 6 56 14 72 18 37 11 42 7 24 -15z m970 -20
c52 -32 82 -66 69 -78 -1 -1 -40 -6 -85 -10 l-83 -7 0 34 c0 40 18 98 30 98 5
0 36 -17 69 -37z m1065 -24 c4 -34 6 -63 3 -65 -15 -15 -65 -14 -86 3 l-23 18
42 53 c23 28 45 52 50 52 4 0 11 -27 14 -61z m-1928 36 c3 -8 1 -37 -6 -64
-11 -48 -13 -49 -69 -70 -70 -25 -77 -26 -85 -5 -12 31 -5 43 52 98 57 56 97
71 108 41z m1718 -33 c10 -21 11 -35 2 -65 -6 -21 -15 -39 -19 -39 -16 0 -127
76 -124 85 4 12 109 56 120 50 4 -2 13 -16 21 -31z m-1422 23 c6 -7 -23 -115
-31 -115 -3 0 -16 16 -29 36 -33 50 -24 84 22 84 18 0 35 -2 38 -5z m738 -17
c0 -24 -35 -108 -44 -108 -11 0 -36 60 -36 84 0 20 7 27 33 35 46 13 47 13 47
-11z m-302 -29 c-5 -47 -31 -59 -63 -29 -28 26 -27 30 18 47 47 17 49 16 45
-18z m794 4 c15 -15 28 -33 28 -40 0 -15 -51 -43 -81 -43 -20 0 -21 4 -16 40
5 38 21 70 35 70 3 0 19 -12 34 -27z m-1452 -44 c0 -12 -7 -19 -20 -19 -25 0
-34 21 -25 58 l7 27 19 -24 c10 -13 19 -32 19 -42z m1218 28 c2 -16 -4 -40
-13 -53 -15 -23 -18 -24 -37 -12 -25 17 -60 77 -52 90 3 5 27 8 52 6 43 -3 47
-5 50 -31z m-1563 -30 c74 -72 73 -87 -12 -107 -42 -10 -48 -1 -60 83 -14 97
-6 100 72 24z m2374 -12 c51 -68 57 -81 36 -89 -17 -6 -125 49 -125 65 0 14
33 79 41 79 3 0 25 -25 48 -55z m-2680 30 c16 -8 31 -21 34 -29 6 -16 -32 -56
-54 -56 -24 0 -76 80 -62 94 11 11 53 6 82 -9z m1706 -26 c52 -29 69 -49 43
-49 -22 0 -138 22 -138 26 0 7 32 54 36 54 3 0 29 -14 59 -31z m-895 -58 c0
-11 -48 -66 -53 -61 -5 5 -11 112 -8 134 1 9 61 -62 61 -73z m338 37 c-3 -48
-24 -60 -52 -32 -16 16 -15 18 10 45 37 39 46 36 42 -13z m1239 -62 c4 -50 2
-76 -5 -76 -11 0 -72 73 -72 87 0 4 12 26 26 47 34 49 44 38 51 -58z m-1076
60 c2 -2 2 -44 -1 -92 l-5 -88 -47 -12 -48 -12 0 104 0 104 48 0 c27 0 51 -2
53 -4z m183 -58 c-7 -74 -10 -88 -23 -88 -10 0 -16 22 -26 92 -6 40 -4 47 12
51 42 11 43 9 37 -55z m494 19 c23 -23 42 -45 42 -49 0 -3 -45 -6 -100 -7 -93
-2 -100 -1 -100 18 0 18 79 79 105 80 6 1 30 -18 53 -42z m222 37 c0 -11 -55
-104 -62 -104 -9 0 -48 55 -48 69 0 15 50 40 83 41 15 0 27 -3 27 -6z m-2032
-56 l20 -53 -51 -17 c-74 -24 -90 -23 -81 4 8 26 75 118 85 118 4 0 17 -24 27
-52z m880 10 c28 -37 31 -44 19 -62 -8 -12 -19 -31 -26 -44 -12 -23 -14 -22
-62 42 -27 36 -49 69 -49 75 0 10 44 29 70 30 9 1 30 -18 48 -41z m-408 28 c0
-6 -130 -89 -134 -85 -6 7 -36 68 -36 73 0 2 10 7 23 9 29 6 147 8 147 3z
m768 -66 c12 -49 12 -58 -3 -90 l-17 -35 -24 28 c-20 23 -24 39 -24 93 0 65 0
65 27 62 23 -3 29 -10 41 -58z m228 40 c91 -15 101 -20 77 -42 -16 -15 -27
-15 -103 -2 -47 7 -86 14 -87 14 -2 0 -3 8 -3 18 0 23 10 34 25 28 6 -2 47
-10 91 -16z m864 -4 c32 -10 35 -15 38 -54 l3 -43 -63 3 -63 3 -3 58 -3 58 28
-7 c15 -4 44 -12 63 -18z m-1782 -66 c24 -44 40 -84 37 -90 -3 -5 -21 -10 -40
-10 -28 0 -41 9 -84 58 l-51 57 35 33 c19 17 40 32 47 32 7 0 32 -36 56 -80z
m153 63 c0 -10 4 -44 8 -76 4 -32 4 -60 0 -63 -18 -11 -56 10 -77 43 l-24 35
38 39 c42 43 54 48 55 22z m-970 -34 c27 -22 49 -47 49 -54 0 -7 -15 -24 -34
-39 l-34 -26 -41 49 c-23 27 -41 52 -41 57 0 8 40 54 48 54 2 0 26 -18 53 -41z
m580 -42 c16 -38 29 -73 29 -78 0 -5 -17 -9 -38 -9 -45 0 -63 16 -88 79 -17
44 -17 44 6 63 39 32 59 20 91 -55z m1879 -29 c0 -16 -86 -19 -123 -3 l-38 16
32 45 31 46 49 -49 c27 -26 49 -51 49 -55z m-1229 41 c21 -14 29 -29 29 -50 0
-29 -1 -29 -55 -29 -30 0 -55 2 -55 5 0 8 44 95 48 95 2 0 17 -9 33 -21z
m1769 -29 c0 -19 -67 -83 -78 -76 -12 7 -17 108 -6 119 9 8 84 -31 84 -43z
m-2550 -20 c27 -52 26 -61 -14 -99 -27 -26 -38 -31 -60 -25 -38 9 -36 62 6
120 17 24 35 44 39 44 5 0 18 -18 29 -40z m629 0 l32 -40 -33 -29 -33 -30 -7
42 c-9 60 -9 97 0 97 5 0 23 -18 41 -40z m1161 15 c13 -14 21 -25 18 -25 -3 0
-50 -9 -103 -20 -119 -24 -188 -26 -209 -4 -29 28 -19 42 36 49 54 8 179 21
214 24 11 0 31 -10 44 -24z m-507 -8 c8 -12 18 -37 21 -54 7 -29 4 -33 -24
-48 -18 -9 -34 -15 -36 -13 -7 7 9 138 16 138 4 0 14 -10 23 -23z m92 -7 c18
-11 36 -28 40 -38 8 -18 35 -150 35 -168 0 -11 -79 -49 -85 -42 -1 2 -8 46
-14 98 -7 52 -14 112 -18 133 -6 43 -2 44 42 17z m-1475 2 c0 -4 -11 -24 -25
-45 -25 -36 -28 -37 -68 -30 -96 15 -97 17 -11 50 84 33 104 38 104 25z m1303
-5 c7 -19 -3 -65 -17 -76 -16 -14 -65 -1 -76 19 -14 27 -3 46 33 58 45 14 54
14 60 -1z m997 -4 c0 -13 -84 -93 -98 -93 -20 0 -5 61 20 83 20 16 78 24 78
10z m-1930 -124 c0 -87 -1 -93 -36 -145 -20 -30 -40 -51 -46 -48 -6 4 -8 38
-4 93 12 167 15 177 44 188 15 5 30 8 35 6 4 -2 7 -45 7 -94z m507 38 c7 -8
-8 -77 -18 -77 -7 0 -56 26 -108 58 l-24 15 23 17 c21 16 28 16 73 4 27 -7 51
-15 54 -17z m296 16 c4 -2 14 -17 22 -33 15 -29 15 -30 -24 -50 -22 -11 -45
-20 -50 -20 -10 0 -71 97 -71 113 0 8 107 -1 123 -10z m765 5 c7 -7 12 -27 12
-45 l0 -33 -65 0 c-80 0 -85 15 -17 59 54 35 54 35 70 19z m-1433 -120 c-4
-68 -9 -126 -12 -130 -2 -5 -18 -1 -35 8 -28 15 -30 19 -25 57 4 23 14 75 23
115 13 60 20 72 36 72 19 0 19 -5 13 -122z m523 95 c14 -35 28 -95 36 -150 7
-49 -4 -54 -44 -24 -25 20 -49 95 -50 158 0 29 6 35 41 42 4 0 11 -11 17 -26z
m-1086 -39 c-1 -5 -16 -29 -33 -52 l-32 -44 -34 61 c-19 34 -32 65 -28 70 7
12 131 -22 127 -35z m742 16 c34 -13 33 -22 -9 -59 -41 -35 -108 -44 -119 -15
-11 28 -6 62 11 79 17 18 63 16 117 -5z m1093 13 c-11 -10 -177 -73 -193 -73
-8 0 -14 8 -14 18 0 9 -3 27 -6 40 -6 22 -6 22 107 22 62 0 109 -3 106 -7z
m-1554 -52 c51 -47 39 -56 -88 -65 -66 -5 -87 -3 -120 13 l-40 19 25 10 c14 6
56 24 95 41 75 32 72 32 128 -18z m736 -65 c-3 -3 -24 -8 -47 -12 l-42 -6 16
48 c9 27 18 56 21 64 3 10 14 -4 31 -37 14 -29 24 -55 21 -57z m1169 85 c-2
-3 -11 -27 -22 -54 -10 -26 -22 -47 -25 -47 -8 0 -70 103 -66 110 5 7 117 -1
113 -9z m-770 -19 c10 -10 31 -35 47 -56 28 -37 28 -39 10 -52 -10 -8 -38 -14
-62 -14 -43 0 -44 1 -68 53 -31 64 -31 74 -2 80 44 9 57 7 75 -11z m-565 -17
l55 -24 -16 -52 c-9 -28 -21 -53 -28 -56 -6 -2 -41 10 -78 26 -47 22 -65 35
-60 43 7 12 68 87 70 88 1 0 26 -11 57 -25z m987 -25 c0 -17 -7 -47 -15 -66
-12 -30 -18 -34 -37 -29 -61 19 -62 49 -5 92 23 17 45 32 50 32 4 1 7 -13 7
-29z m410 -4 c0 -27 -18 -46 -42 -46 -17 0 -17 2 2 40 22 42 40 45 40 6z
m-980 -33 c7 -32 14 -62 16 -68 2 -5 -18 -22 -44 -37 -42 -23 -52 -26 -67 -14
-16 12 -14 18 30 94 26 45 48 82 50 82 2 0 9 -26 15 -57z m680 47 c0 -18 -55
-100 -67 -100 -9 0 -13 17 -13 55 l0 55 40 0 c22 0 40 -4 40 -10z m-240 -118
c0 -49 -3 -91 -6 -95 -9 -8 -134 94 -134 109 0 15 97 73 123 74 15 0 17 -11
17 -88z m-666 42 c3 -9 6 -24 6 -35 0 -20 -81 -178 -91 -179 -14 0 -61 122
-55 145 6 24 88 83 117 84 9 1 20 -6 23 -15z m-231 -57 c40 -17 43 -23 23 -49
-17 -23 -23 -22 -84 3 -34 14 -59 34 -76 58 -14 20 -26 40 -26 44 0 6 77 -20
163 -56z m1327 24 c0 -8 -103 -111 -111 -111 -7 0 -49 92 -49 107 0 4 36 8 80
8 44 1 80 -1 80 -4z m-2480 -17 c0 -10 -44 -43 -58 -44 -17 0 -28 30 -14 39
15 9 72 13 72 5z m1879 -31 c17 -61 16 -63 -36 -57 -94 12 -118 19 -121 38 -7
35 26 56 89 56 l58 0 10 -37z m-876 -32 c26 -32 47 -64 47 -70 0 -6 -12 -13
-27 -17 -48 -10 -51 -12 -55 -36 -4 -27 -39 -36 -56 -15 -9 10 -6 36 10 105
12 51 25 92 28 92 3 0 26 -27 53 -59z m1152 22 c48 -32 55 -41 55 -73 0 -26
-55 -90 -77 -90 -7 0 -13 1 -13 3 0 1 -7 40 -15 87 -8 47 -15 88 -15 93 0 14
26 7 65 -20z m-1655 -23 c-5 -16 -11 -34 -14 -39 -7 -10 -119 -81 -130 -81 -3
0 -18 18 -32 40 -24 36 -25 43 -14 69 13 32 31 37 140 44 59 3 60 2 50 -33z
m1190 -50 c0 -74 -3 -90 -15 -90 -18 0 -37 21 -71 78 l-25 41 48 31 c26 16 51
30 56 30 4 0 7 -40 7 -90z m-976 72 c3 -5 -17 -31 -45 -58 l-49 -48 -31 30
-30 30 38 27 c37 27 105 37 117 19z m721 -22 c15 -17 17 -30 11 -87 -4 -37 -8
-68 -9 -69 -1 -1 -19 -4 -40 -8 -34 -6 -38 -5 -34 11 3 10 13 53 23 96 10 42
21 77 24 77 4 0 15 -9 25 -20z m-584 -2 c22 -6 39 -15 39 -20 0 -13 -80 -68
-138 -95 -36 -17 -61 -23 -79 -18 -26 6 -25 7 43 76 37 38 75 69 83 69 7 0 31
-5 52 -12z m693 -80 c10 -26 29 -57 42 -67 21 -16 25 -27 22 -58 -2 -31 -7
-39 -26 -41 -29 -4 -89 15 -95 31 -4 12 8 134 18 176 7 30 17 20 39 -41z
m-359 22 c6 -25 1 -39 -27 -75 -18 -24 -36 -45 -39 -45 -6 0 -39 66 -39 79 0
10 79 71 91 71 4 0 10 -14 14 -30z m1150 -50 l49 -50 -42 0 c-38 0 -43 3 -62
40 -39 77 -16 82 55 10z m-436 13 c-68 -82 -88 -101 -97 -90 -14 18 -42 75
-42 86 0 10 37 16 114 19 36 2 38 1 25 -15z m78 -47 c-3 -7 -9 -35 -12 -62
-11 -73 -15 -77 -53 -54 -37 22 -37 21 23 93 31 36 51 48 42 23z m-923 -58
c20 -23 36 -46 36 -51 0 -6 -10 -37 -22 -70 l-22 -59 -25 31 c-24 29 -26 38
-23 111 2 44 7 80 12 80 5 0 25 -19 44 -42z m-151 -64 l7 -42 -40 -10 c-22 -5
-40 -6 -40 -1 0 5 12 39 27 76 29 73 31 72 46 -23z m843 25 c30 -29 54 -56 54
-62 0 -13 -70 -107 -80 -107 -4 0 -11 17 -15 38 -4 20 -17 67 -30 104 -13 36
-21 69 -17 72 14 14 37 2 88 -45z m-295 -29 c16 -85 17 -160 2 -175 -33 -33
-49 -19 -82 73 -31 87 -37 122 -24 136 4 4 27 6 52 4 43 -3 46 -5 52 -38z
m-169 24 c6 -5 -27 -142 -36 -151 -8 -9 -97 27 -102 41 -2 6 2 29 9 51 12 35
19 41 58 52 52 14 64 15 71 7z m838 -1 c0 -5 -13 -33 -28 -63 -23 -46 -32 -56
-60 -61 -39 -8 -45 0 -36 48 14 78 19 83 74 83 27 0 50 -3 50 -7z m-1522 -28
c28 -4 52 -11 52 -16 0 -5 -12 -27 -27 -50 l-26 -40 -26 23 c-14 13 -30 28
-36 33 -18 16 -35 52 -28 59 4 3 14 4 22 2 9 -3 40 -8 69 -11z m987 -315 c11
-19 -16 -40 -51 -40 -38 0 -51 14 -34 35 14 17 76 20 85 5z"/>
<path d="M6660 7033 c-267 -21 -545 -48 -693 -68 -685 -91 -1042 -135 -1172
-145 -82 -6 -285 -22 -450 -35 -165 -13 -401 -31 -525 -40 -124 -8 -265 -20
-315 -25 -185 -19 -359 -22 -670 -11 -299 10 -616 20 -1415 41 -323 9 -626 37
-897 84 -48 9 -89 13 -92 11 -2 -3 20 -60 50 -127 l55 -122 265 -118 c145 -64
282 -120 304 -122 22 -3 310 -15 640 -26 330 -11 733 -26 895 -32 225 -9 392
-8 705 1 226 6 646 18 935 26 289 8 559 17 600 20 41 4 280 40 530 80 506 82
561 89 875 106 121 6 225 15 231 18 15 8 394 473 394 483 0 8 -157 8 -250 1z"/>
<path d="M3990 1729 c0 -5 5 -7 10 -4 6 3 10 8 10 11 0 2 -4 4 -10 4 -5 0 -10
-5 -10 -11z"/>
</g>
</svg>
